<?xml version="1.0" encoding="UTF-8"?><svg id="miniMenu" xmlns="http://www.w3.org/2000/svg" version="1.1" width="512" height="512" viewBox="0 0 512 512"><path id="icon" fill="#ffffff" d="M256,0C114.8,0,0,114.8,0,256s114.8,256,256,256,256-114.8,256-256S397.2,0,256,0ZM362.7,362.7h-213.3c-11.8,0-21.3-9.6-21.3-21.3s9.5-21.3,21.3-21.3h213.3c11.8,0,21.3,9.6,21.3,21.3,0,11.8-9.5,21.3-21.3,21.3ZM362.7,277.3h-213.3c-11.8,0-21.3-9.6-21.3-21.3s9.5-21.3,21.3-21.3h213.3c11.8,0,21.3,9.6,21.3,21.3s-9.5,21.3-21.3,21.3ZM362.7,192h-213.3c-11.8,0-21.3-9.6-21.3-21.3s9.5-21.3,21.3-21.3h213.3c11.8,0,21.3,9.6,21.3,21.3s-9.5,21.3-21.3,21.3Z"/></svg>